<svg width="575" height="213" viewBox="0 0 575 213" fill="none" xmlns="http://www.w3.org/2000/svg">
<path d="M4.57586 178.8H18.1479C18.3399 178.8 18.5079 178.872 18.6519 179.016C18.7959 179.16 18.8679 179.328 18.8679 179.52C18.8679 179.736 18.7959 179.916 18.6519 180.06C18.5079 180.18 18.3399 180.24 18.1479 180.24H5.00786L5.36786 179.628V190.788L4.93586 190.284H16.5279C16.7199 190.284 16.8879 190.356 17.0319 190.5C17.1759 190.644 17.2479 190.812 17.2479 191.004C17.2479 191.22 17.1759 191.4 17.0319 191.544C16.8879 191.664 16.7199 191.724 16.5279 191.724H5.00786L5.36786 191.328V202.74L5.22386 202.56H18.1479C18.3399 202.56 18.5079 202.632 18.6519 202.776C18.7959 202.92 18.8679 203.088 18.8679 203.28C18.8679 203.496 18.7959 203.676 18.6519 203.82C18.5079 203.94 18.3399 204 18.1479 204H4.57586C4.38386 204 4.21586 203.928 4.07186 203.784C3.92786 203.64 3.85586 203.472 3.85586 203.28V179.52C3.85586 179.328 3.92786 179.16 4.07186 179.016C4.21586 178.872 4.38386 178.8 4.57586 178.8ZM33.1376 185.82C34.4816 185.82 35.7056 186.192 36.8096 186.936C37.9376 187.656 38.7056 188.796 39.1136 190.356L38.6456 190.68L38.8256 189.996C39.1376 189.204 39.6776 188.496 40.4456 187.872C41.2376 187.248 42.1136 186.756 43.0736 186.396C44.0576 186.012 45.0056 185.82 45.9176 185.82C47.3576 185.82 48.5456 186.132 49.4816 186.756C50.4176 187.38 51.1016 188.22 51.5336 189.276C51.9896 190.308 52.2176 191.484 52.2176 192.804V203.28C52.2176 203.472 52.1456 203.64 52.0016 203.784C51.8816 203.928 51.7136 204 51.4976 204C51.2816 204 51.1016 203.928 50.9576 203.784C50.8376 203.64 50.7776 203.472 50.7776 203.28V192.948C50.7776 191.892 50.5976 190.932 50.2376 190.068C49.9016 189.18 49.3616 188.484 48.6176 187.98C47.8976 187.452 46.9496 187.188 45.7736 187.188C44.7416 187.188 43.7336 187.452 42.7496 187.98C41.7656 188.484 40.9496 189.18 40.3016 190.068C39.6776 190.932 39.3656 191.892 39.3656 192.948V203.28C39.3656 203.472 39.2936 203.64 39.1496 203.784C39.0296 203.928 38.8616 204 38.6456 204C38.4296 204 38.2496 203.928 38.1056 203.784C37.9856 203.64 37.9256 203.472 37.9256 203.28V192.768C37.9256 191.736 37.7576 190.8 37.4216 189.96C37.1096 189.12 36.6056 188.448 35.9096 187.944C35.2136 187.44 34.2896 187.188 33.1376 187.188C32.1296 187.188 31.1456 187.44 30.1856 187.944C29.2496 188.448 28.4696 189.12 27.8456 189.96C27.2216 190.8 26.9096 191.736 26.9096 192.768V203.28C26.9096 203.472 26.8376 203.64 26.6936 203.784C26.5496 203.928 26.3816 204 26.1896 204C25.9736 204 25.7936 203.928 25.6496 203.784C25.5296 203.64 25.4696 203.472 25.4696 203.28V186.756C25.4696 186.564 25.5416 186.396 25.6856 186.252C25.8296 186.108 25.9976 186.036 26.1896 186.036C26.4056 186.036 26.5736 186.108 26.6936 186.252C26.8376 186.396 26.9096 186.564 26.9096 186.756V190.68L25.8296 192.516C25.8296 191.676 26.0336 190.86 26.4416 190.068C26.8496 189.276 27.3896 188.568 28.0616 187.944C28.7576 187.296 29.5376 186.78 30.4016 186.396C31.2896 186.012 32.2016 185.82 33.1376 185.82ZM68.3521 185.82C69.9601 185.82 71.3881 186.216 72.6361 187.008C73.8841 187.8 74.8681 188.892 75.5881 190.284C76.3321 191.652 76.7041 193.224 76.7041 195C76.7041 196.752 76.3321 198.324 75.5881 199.716C74.8681 201.108 73.8721 202.212 72.6001 203.028C71.3521 203.82 69.9361 204.216 68.3521 204.216C67.5601 204.216 66.7921 204.108 66.0481 203.892C65.3281 203.652 64.6561 203.328 64.0321 202.92C63.4081 202.488 62.8321 201.96 62.3041 201.336C61.8001 200.712 61.3561 200.004 60.9721 199.212L61.4401 198.708V210.48C61.4401 210.672 61.3681 210.84 61.2241 210.984C61.1041 211.128 60.9361 211.2 60.7201 211.2C60.5281 211.2 60.3601 211.128 60.2161 210.984C60.0721 210.84 60.0001 210.672 60.0001 210.48V186.54C60.0001 186.348 60.0601 186.18 60.1801 186.036C60.3241 185.892 60.5041 185.82 60.7201 185.82C60.9361 185.82 61.1041 185.892 61.2241 186.036C61.3681 186.18 61.4401 186.348 61.4401 186.54V191.148L60.9721 190.896C61.3081 190.008 61.7281 189.24 62.2321 188.592C62.7361 187.944 63.3121 187.416 63.9601 187.008C64.6081 186.6 65.3041 186.3 66.0481 186.108C66.7921 185.916 67.5601 185.82 68.3521 185.82ZM68.2801 187.188C66.9121 187.188 65.7001 187.524 64.6441 188.196C63.6121 188.868 62.7961 189.792 62.1961 190.968C61.5961 192.12 61.2961 193.464 61.2961 195C61.2961 196.512 61.5961 197.868 62.1961 199.068C62.7961 200.244 63.6121 201.168 64.6441 201.84C65.7001 202.512 66.9121 202.848 68.2801 202.848C69.6241 202.848 70.8121 202.512 71.8441 201.84C72.9001 201.168 73.7281 200.244 74.3281 199.068C74.9521 197.868 75.2641 196.512 75.2641 195C75.2641 193.488 74.9521 192.144 74.3281 190.968C73.7281 189.792 72.9001 188.868 71.8441 188.196C70.8121 187.524 69.6241 187.188 68.2801 187.188ZM84.9709 203.28C84.9709 203.472 84.8989 203.64 84.7549 203.784C84.6109 203.928 84.4429 204 84.2509 204C84.0349 204 83.8549 203.928 83.7109 203.784C83.5909 203.64 83.5309 203.472 83.5309 203.28V178.08C83.5309 177.888 83.6029 177.72 83.7469 177.576C83.8909 177.432 84.0589 177.36 84.2509 177.36C84.4669 177.36 84.6349 177.432 84.7549 177.576C84.8989 177.72 84.9709 177.888 84.9709 178.08V203.28ZM109.201 194.928C109.201 196.704 108.817 198.312 108.049 199.752C107.281 201.168 106.225 202.296 104.881 203.136C103.561 203.952 102.049 204.36 100.345 204.36C98.6649 204.36 97.1529 203.952 95.8089 203.136C94.4649 202.296 93.3969 201.168 92.6049 199.752C91.8369 198.312 91.4529 196.704 91.4529 194.928C91.4529 193.128 91.8369 191.52 92.6049 190.104C93.3969 188.664 94.4649 187.536 95.8089 186.72C97.1529 185.88 98.6649 185.46 100.345 185.46C102.049 185.46 103.561 185.88 104.881 186.72C106.225 187.536 107.281 188.664 108.049 190.104C108.817 191.52 109.201 193.128 109.201 194.928ZM107.761 194.928C107.761 193.368 107.437 191.988 106.789 190.788C106.165 189.564 105.289 188.604 104.161 187.908C103.057 187.188 101.785 186.828 100.345 186.828C98.9289 186.828 97.6569 187.188 96.5289 187.908C95.4009 188.604 94.5129 189.564 93.8649 190.788C93.2169 191.988 92.8929 193.368 92.8929 194.928C92.8929 196.464 93.2169 197.844 93.8649 199.068C94.5129 200.268 95.4009 201.228 96.5289 201.948C97.6569 202.644 98.9289 202.992 100.345 202.992C101.785 202.992 103.057 202.644 104.161 201.948C105.289 201.228 106.165 200.268 106.789 199.068C107.437 197.844 107.761 196.464 107.761 194.928ZM129.385 185.46C129.601 185.46 129.769 185.532 129.889 185.676C130.033 185.82 130.105 185.988 130.105 186.18V202.236C130.105 204.084 129.733 205.68 128.989 207.024C128.245 208.368 127.237 209.4 125.965 210.12C124.693 210.84 123.241 211.2 121.609 211.2C120.505 211.2 119.509 211.068 118.621 210.804C117.757 210.54 117.049 210.216 116.497 209.832C116.329 209.712 116.197 209.568 116.101 209.4C116.005 209.232 116.005 209.052 116.101 208.86C116.197 208.668 116.329 208.536 116.497 208.464C116.689 208.392 116.869 208.416 117.037 208.536C117.445 208.776 118.057 209.064 118.873 209.4C119.713 209.736 120.649 209.904 121.681 209.904C123.073 209.904 124.285 209.58 125.317 208.932C126.373 208.284 127.189 207.384 127.765 206.232C128.365 205.08 128.665 203.748 128.665 202.236V199.572L128.737 200.472C128.401 201.192 127.885 201.852 127.189 202.452C126.517 203.028 125.749 203.496 124.885 203.856C124.045 204.192 123.169 204.36 122.257 204.36C120.769 204.36 119.545 204.072 118.585 203.496C117.649 202.896 116.953 202.08 116.497 201.048C116.065 200.016 115.849 198.804 115.849 197.412V186.18C115.849 185.988 115.909 185.82 116.029 185.676C116.173 185.532 116.353 185.46 116.569 185.46C116.785 185.46 116.953 185.532 117.073 185.676C117.217 185.82 117.289 185.988 117.289 186.18V197.412C117.289 199.116 117.661 200.472 118.405 201.48C119.173 202.488 120.457 202.992 122.257 202.992C123.337 202.992 124.357 202.728 125.317 202.2C126.301 201.648 127.105 200.94 127.729 200.076C128.353 199.212 128.665 198.324 128.665 197.412V186.18C128.665 185.988 128.725 185.82 128.845 185.676C128.989 185.532 129.169 185.46 129.385 185.46ZM145.788 204.36C143.988 204.36 142.392 203.976 141 203.208C139.632 202.44 138.552 201.36 137.76 199.968C136.968 198.552 136.572 196.896 136.572 195C136.572 192.984 136.956 191.268 137.724 189.852C138.516 188.436 139.524 187.356 140.748 186.612C141.996 185.844 143.316 185.46 144.708 185.46C145.716 185.46 146.7 185.628 147.66 185.964C148.62 186.276 149.472 186.78 150.216 187.476C150.984 188.148 151.596 189 152.052 190.032C152.532 191.04 152.796 192.252 152.844 193.668C152.844 193.86 152.772 194.04 152.628 194.208C152.484 194.352 152.316 194.424 152.124 194.424H137.436L137.22 193.056H151.728L151.368 193.38V192.732C151.248 191.46 150.84 190.392 150.144 189.528C149.472 188.664 148.656 188.016 147.696 187.584C146.736 187.128 145.74 186.9 144.708 186.9C143.988 186.9 143.232 187.068 142.44 187.404C141.648 187.716 140.916 188.208 140.244 188.88C139.572 189.528 139.02 190.356 138.588 191.364C138.18 192.372 137.976 193.548 137.976 194.892C137.976 196.356 138.264 197.7 138.84 198.924C139.44 200.148 140.316 201.132 141.468 201.876C142.644 202.62 144.084 202.992 145.788 202.992C146.604 202.992 147.372 202.86 148.092 202.596C148.812 202.308 149.46 201.936 150.036 201.48C150.612 201.024 151.08 200.532 151.44 200.004C151.632 199.788 151.836 199.68 152.052 199.68C152.22 199.68 152.364 199.752 152.484 199.896C152.604 200.016 152.664 200.16 152.664 200.328C152.664 200.496 152.616 200.64 152.52 200.76C151.776 201.72 150.816 202.56 149.64 203.28C148.488 204 147.204 204.36 145.788 204.36ZM167.592 204.36C165.792 204.36 164.196 203.976 162.804 203.208C161.436 202.44 160.356 201.36 159.564 199.968C158.772 198.552 158.376 196.896 158.376 195C158.376 192.984 158.76 191.268 159.528 189.852C160.32 188.436 161.328 187.356 162.552 186.612C163.8 185.844 165.12 185.46 166.512 185.46C167.52 185.46 168.504 185.628 169.464 185.964C170.424 186.276 171.276 186.78 172.02 187.476C172.788 188.148 173.4 189 173.856 190.032C174.336 191.04 174.6 192.252 174.648 193.668C174.648 193.86 174.576 194.04 174.432 194.208C174.288 194.352 174.12 194.424 173.928 194.424H159.24L159.024 193.056H173.532L173.172 193.38V192.732C173.052 191.46 172.644 190.392 171.948 189.528C171.276 188.664 170.46 188.016 169.5 187.584C168.54 187.128 167.544 186.9 166.512 186.9C165.792 186.9 165.036 187.068 164.244 187.404C163.452 187.716 162.72 188.208 162.048 188.88C161.376 189.528 160.824 190.356 160.392 191.364C159.984 192.372 159.78 193.548 159.78 194.892C159.78 196.356 160.068 197.7 160.644 198.924C161.244 200.148 162.12 201.132 163.272 201.876C164.448 202.62 165.888 202.992 167.592 202.992C168.408 202.992 169.176 202.86 169.896 202.596C170.616 202.308 171.264 201.936 171.84 201.48C172.416 201.024 172.884 200.532 173.244 200.004C173.436 199.788 173.64 199.68 173.856 199.68C174.024 199.68 174.168 199.752 174.288 199.896C174.408 200.016 174.468 200.16 174.468 200.328C174.468 200.496 174.42 200.64 174.324 200.76C173.58 201.72 172.62 202.56 171.444 203.28C170.292 204 169.008 204.36 167.592 204.36ZM194.095 178.8C194.215 178.8 194.335 178.824 194.455 178.872C194.575 178.92 194.683 179.004 194.779 179.124L205.111 194.496H204.391L214.723 179.124C214.915 178.86 215.143 178.752 215.407 178.8C215.599 178.824 215.755 178.908 215.875 179.052C215.995 179.172 216.055 179.328 216.055 179.52V203.28C216.055 203.472 215.971 203.64 215.803 203.784C215.659 203.928 215.491 204 215.299 204C215.083 204 214.903 203.928 214.759 203.784C214.615 203.64 214.543 203.472 214.543 203.28V181.14H214.939L205.255 195.792C205.207 195.888 205.135 195.96 205.039 196.008C204.967 196.056 204.871 196.08 204.751 196.08C204.631 196.08 204.511 196.056 204.391 196.008C204.295 195.96 204.223 195.888 204.175 195.792L194.275 180.852H194.851V203.28C194.851 203.472 194.779 203.64 194.635 203.784C194.491 203.928 194.323 204 194.131 204C193.915 204 193.735 203.928 193.591 203.784C193.471 203.64 193.411 203.472 193.411 203.28V179.52C193.411 179.352 193.471 179.196 193.591 179.052C193.711 178.884 193.879 178.8 194.095 178.8ZM239.315 186.036C239.531 186.036 239.699 186.108 239.819 186.252C239.963 186.396 240.035 186.564 240.035 186.756V203.28C240.035 203.472 239.963 203.64 239.819 203.784C239.675 203.928 239.507 204 239.315 204C239.099 204 238.919 203.928 238.775 203.784C238.655 203.64 238.595 203.472 238.595 203.28V198.168L239.171 197.7C239.171 198.468 238.979 199.248 238.595 200.04C238.211 200.832 237.683 201.552 237.011 202.2C236.339 202.848 235.547 203.376 234.635 203.784C233.723 204.168 232.739 204.36 231.683 204.36C230.075 204.36 228.635 203.94 227.363 203.1C226.115 202.26 225.131 201.12 224.411 199.68C223.691 198.24 223.331 196.62 223.331 194.82C223.331 192.996 223.691 191.388 224.411 189.996C225.155 188.58 226.151 187.476 227.399 186.684C228.671 185.868 230.099 185.46 231.683 185.46C232.715 185.46 233.687 185.652 234.599 186.036C235.511 186.396 236.303 186.912 236.975 187.584C237.671 188.256 238.211 189.048 238.595 189.96C238.979 190.848 239.171 191.82 239.171 192.876L238.595 191.976V186.756C238.595 186.564 238.655 186.396 238.775 186.252C238.919 186.108 239.099 186.036 239.315 186.036ZM231.755 202.992C233.099 202.992 234.299 202.644 235.355 201.948C236.411 201.228 237.239 200.256 237.839 199.032C238.439 197.784 238.739 196.38 238.739 194.82C238.739 193.332 238.439 191.988 237.839 190.788C237.239 189.564 236.411 188.604 235.355 187.908C234.299 187.188 233.099 186.828 231.755 186.828C230.435 186.828 229.247 187.176 228.191 187.872C227.135 188.544 226.295 189.48 225.671 190.68C225.071 191.88 224.771 193.26 224.771 194.82C224.771 196.38 225.071 197.784 225.671 199.032C226.271 200.256 227.099 201.228 228.155 201.948C229.211 202.644 230.411 202.992 231.755 202.992ZM255.97 185.46C257.482 185.46 258.706 185.76 259.642 186.36C260.602 186.96 261.298 187.776 261.73 188.808C262.186 189.84 262.414 190.992 262.414 192.264V203.28C262.414 203.472 262.342 203.64 262.198 203.784C262.054 203.928 261.886 204 261.694 204C261.478 204 261.298 203.928 261.154 203.784C261.034 203.64 260.974 203.472 260.974 203.28V192.408C260.974 191.376 260.794 190.44 260.434 189.6C260.098 188.76 259.546 188.088 258.778 187.584C258.034 187.08 257.05 186.828 255.826 186.828C254.77 186.828 253.738 187.08 252.73 187.584C251.722 188.088 250.882 188.76 250.21 189.6C249.562 190.44 249.238 191.376 249.238 192.408V203.28C249.238 203.472 249.166 203.64 249.022 203.784C248.878 203.928 248.71 204 248.518 204C248.302 204 248.122 203.928 247.978 203.784C247.858 203.64 247.798 203.472 247.798 203.28V186.756C247.798 186.564 247.87 186.396 248.014 186.252C248.158 186.108 248.326 186.036 248.518 186.036C248.734 186.036 248.902 186.108 249.022 186.252C249.166 186.396 249.238 186.564 249.238 186.756V190.284L248.338 192.012C248.338 191.148 248.566 190.32 249.022 189.528C249.478 188.736 250.078 188.04 250.822 187.44C251.566 186.816 252.382 186.336 253.27 186C254.182 185.64 255.082 185.46 255.97 185.46ZM285.067 186.036C285.283 186.036 285.451 186.108 285.571 186.252C285.715 186.396 285.787 186.564 285.787 186.756V203.28C285.787 203.472 285.715 203.64 285.571 203.784C285.427 203.928 285.259 204 285.067 204C284.851 204 284.671 203.928 284.527 203.784C284.407 203.64 284.347 203.472 284.347 203.28V198.168L284.923 197.7C284.923 198.468 284.731 199.248 284.347 200.04C283.963 200.832 283.435 201.552 282.763 202.2C282.091 202.848 281.299 203.376 280.387 203.784C279.475 204.168 278.491 204.36 277.435 204.36C275.827 204.36 274.387 203.94 273.115 203.1C271.867 202.26 270.883 201.12 270.163 199.68C269.443 198.24 269.083 196.62 269.083 194.82C269.083 192.996 269.443 191.388 270.163 189.996C270.907 188.58 271.903 187.476 273.151 186.684C274.423 185.868 275.851 185.46 277.435 185.46C278.467 185.46 279.439 185.652 280.351 186.036C281.263 186.396 282.055 186.912 282.727 187.584C283.423 188.256 283.963 189.048 284.347 189.96C284.731 190.848 284.923 191.82 284.923 192.876L284.347 191.976V186.756C284.347 186.564 284.407 186.396 284.527 186.252C284.671 186.108 284.851 186.036 285.067 186.036ZM277.507 202.992C278.851 202.992 280.051 202.644 281.107 201.948C282.163 201.228 282.991 200.256 283.591 199.032C284.191 197.784 284.491 196.38 284.491 194.82C284.491 193.332 284.191 191.988 283.591 190.788C282.991 189.564 282.163 188.604 281.107 187.908C280.051 187.188 278.851 186.828 277.507 186.828C276.187 186.828 274.999 187.176 273.943 187.872C272.887 188.544 272.047 189.48 271.423 190.68C270.823 191.88 270.523 193.26 270.523 194.82C270.523 196.38 270.823 197.784 271.423 199.032C272.023 200.256 272.851 201.228 273.907 201.948C274.963 202.644 276.163 202.992 277.507 202.992ZM301.146 185.46C302.226 185.46 303.234 185.652 304.17 186.036C305.106 186.42 305.922 186.924 306.618 187.548C307.338 188.172 307.89 188.844 308.274 189.564C308.682 190.284 308.886 190.992 308.886 191.688L308.418 190.356V186.756C308.418 186.564 308.478 186.396 308.598 186.252C308.742 186.108 308.922 186.036 309.138 186.036C309.354 186.036 309.522 186.108 309.642 186.252C309.786 186.396 309.858 186.564 309.858 186.756V202.236C309.858 204.084 309.474 205.68 308.706 207.024C307.962 208.368 306.93 209.4 305.61 210.12C304.29 210.84 302.754 211.2 301.002 211.2C300.042 211.2 299.07 211.068 298.086 210.804C297.126 210.564 296.322 210.252 295.674 209.868C295.026 209.484 294.702 209.076 294.702 208.644C294.702 208.452 294.75 208.296 294.846 208.176C294.966 208.056 295.122 207.996 295.314 207.996C295.554 207.996 295.77 208.128 295.962 208.392C296.178 208.656 296.55 208.896 297.078 209.112C297.294 209.184 297.582 209.28 297.942 209.4C298.326 209.52 298.782 209.616 299.31 209.688C299.838 209.784 300.426 209.832 301.074 209.832C303.354 209.832 305.142 209.124 306.438 207.708C307.758 206.316 308.418 204.492 308.418 202.236V198.672L308.778 198.708C308.49 199.74 308.07 200.616 307.518 201.336C306.966 202.056 306.33 202.644 305.61 203.1C304.914 203.532 304.17 203.844 303.378 204.036C302.61 204.252 301.866 204.36 301.146 204.36C299.49 204.36 298.002 203.952 296.682 203.136C295.386 202.296 294.354 201.168 293.586 199.752C292.818 198.312 292.434 196.692 292.434 194.892C292.434 193.092 292.818 191.484 293.586 190.068C294.354 188.628 295.386 187.5 296.682 186.684C298.002 185.868 299.49 185.46 301.146 185.46ZM301.218 186.828C299.826 186.828 298.566 187.176 297.438 187.872C296.334 188.568 295.458 189.528 294.81 190.752C294.186 191.952 293.874 193.332 293.874 194.892C293.874 196.428 294.186 197.808 294.81 199.032C295.458 200.256 296.334 201.228 297.438 201.948C298.566 202.644 299.826 202.992 301.218 202.992C302.61 202.992 303.858 202.656 304.962 201.984C306.066 201.288 306.942 200.34 307.59 199.14C308.238 197.916 308.562 196.5 308.562 194.892C308.562 193.284 308.238 191.88 307.59 190.68C306.942 189.456 306.066 188.508 304.962 187.836C303.858 187.164 302.61 186.828 301.218 186.828ZM325.036 204.36C323.236 204.36 321.64 203.976 320.248 203.208C318.88 202.44 317.8 201.36 317.008 199.968C316.216 198.552 315.82 196.896 315.82 195C315.82 192.984 316.204 191.268 316.972 189.852C317.764 188.436 318.772 187.356 319.996 186.612C321.244 185.844 322.564 185.46 323.956 185.46C324.964 185.46 325.948 185.628 326.908 185.964C327.868 186.276 328.72 186.78 329.464 187.476C330.232 188.148 330.844 189 331.3 190.032C331.78 191.04 332.044 192.252 332.092 193.668C332.092 193.86 332.02 194.04 331.876 194.208C331.732 194.352 331.564 194.424 331.372 194.424H316.684L316.468 193.056H330.976L330.616 193.38V192.732C330.496 191.46 330.088 190.392 329.392 189.528C328.72 188.664 327.904 188.016 326.944 187.584C325.984 187.128 324.988 186.9 323.956 186.9C323.236 186.9 322.48 187.068 321.688 187.404C320.896 187.716 320.164 188.208 319.492 188.88C318.82 189.528 318.268 190.356 317.836 191.364C317.428 192.372 317.224 193.548 317.224 194.892C317.224 196.356 317.512 197.7 318.088 198.924C318.688 200.148 319.564 201.132 320.716 201.876C321.892 202.62 323.332 202.992 325.036 202.992C325.852 202.992 326.62 202.86 327.34 202.596C328.06 202.308 328.708 201.936 329.284 201.48C329.86 201.024 330.328 200.532 330.688 200.004C330.88 199.788 331.084 199.68 331.3 199.68C331.468 199.68 331.612 199.752 331.732 199.896C331.852 200.016 331.912 200.16 331.912 200.328C331.912 200.496 331.864 200.64 331.768 200.76C331.024 201.72 330.064 202.56 328.888 203.28C327.736 204 326.452 204.36 325.036 204.36ZM346.408 185.82C347.752 185.82 348.976 186.192 350.08 186.936C351.208 187.656 351.976 188.796 352.384 190.356L351.916 190.68L352.096 189.996C352.408 189.204 352.948 188.496 353.716 187.872C354.508 187.248 355.384 186.756 356.344 186.396C357.328 186.012 358.276 185.82 359.188 185.82C360.628 185.82 361.816 186.132 362.752 186.756C363.688 187.38 364.372 188.22 364.804 189.276C365.26 190.308 365.488 191.484 365.488 192.804V203.28C365.488 203.472 365.416 203.64 365.272 203.784C365.152 203.928 364.984 204 364.768 204C364.552 204 364.372 203.928 364.228 203.784C364.108 203.64 364.048 203.472 364.048 203.28V192.948C364.048 191.892 363.868 190.932 363.508 190.068C363.172 189.18 362.632 188.484 361.888 187.98C361.168 187.452 360.22 187.188 359.044 187.188C358.012 187.188 357.004 187.452 356.02 187.98C355.036 188.484 354.22 189.18 353.572 190.068C352.948 190.932 352.636 191.892 352.636 192.948V203.28C352.636 203.472 352.564 203.64 352.42 203.784C352.3 203.928 352.132 204 351.916 204C351.7 204 351.52 203.928 351.376 203.784C351.256 203.64 351.196 203.472 351.196 203.28V192.768C351.196 191.736 351.028 190.8 350.692 189.96C350.38 189.12 349.876 188.448 349.18 187.944C348.484 187.44 347.56 187.188 346.408 187.188C345.4 187.188 344.416 187.44 343.456 187.944C342.52 188.448 341.74 189.12 341.116 189.96C340.492 190.8 340.18 191.736 340.18 192.768V203.28C340.18 203.472 340.108 203.64 339.964 203.784C339.82 203.928 339.652 204 339.46 204C339.244 204 339.064 203.928 338.92 203.784C338.8 203.64 338.74 203.472 338.74 203.28V186.756C338.74 186.564 338.812 186.396 338.956 186.252C339.1 186.108 339.268 186.036 339.46 186.036C339.676 186.036 339.844 186.108 339.964 186.252C340.108 186.396 340.18 186.564 340.18 186.756V190.68L339.1 192.516C339.1 191.676 339.304 190.86 339.712 190.068C340.12 189.276 340.66 188.568 341.332 187.944C342.028 187.296 342.808 186.78 343.672 186.396C344.56 186.012 345.472 185.82 346.408 185.82ZM381.37 204.36C379.57 204.36 377.974 203.976 376.582 203.208C375.214 202.44 374.134 201.36 373.342 199.968C372.55 198.552 372.154 196.896 372.154 195C372.154 192.984 372.538 191.268 373.306 189.852C374.098 188.436 375.106 187.356 376.33 186.612C377.578 185.844 378.898 185.46 380.29 185.46C381.298 185.46 382.282 185.628 383.242 185.964C384.202 186.276 385.054 186.78 385.798 187.476C386.566 188.148 387.178 189 387.634 190.032C388.114 191.04 388.378 192.252 388.426 193.668C388.426 193.86 388.354 194.04 388.21 194.208C388.066 194.352 387.898 194.424 387.706 194.424H373.018L372.802 193.056H387.31L386.95 193.38V192.732C386.83 191.46 386.422 190.392 385.726 189.528C385.054 188.664 384.238 188.016 383.278 187.584C382.318 187.128 381.322 186.9 380.29 186.9C379.57 186.9 378.814 187.068 378.022 187.404C377.23 187.716 376.498 188.208 375.826 188.88C375.154 189.528 374.602 190.356 374.17 191.364C373.762 192.372 373.558 193.548 373.558 194.892C373.558 196.356 373.846 197.7 374.422 198.924C375.022 200.148 375.898 201.132 377.05 201.876C378.226 202.62 379.666 202.992 381.37 202.992C382.186 202.992 382.954 202.86 383.674 202.596C384.394 202.308 385.042 201.936 385.618 201.48C386.194 201.024 386.662 200.532 387.022 200.004C387.214 199.788 387.418 199.68 387.634 199.68C387.802 199.68 387.946 199.752 388.066 199.896C388.186 200.016 388.246 200.16 388.246 200.328C388.246 200.496 388.198 200.64 388.102 200.76C387.358 201.72 386.398 202.56 385.222 203.28C384.07 204 382.786 204.36 381.37 204.36ZM403.246 185.46C404.758 185.46 405.982 185.76 406.918 186.36C407.878 186.96 408.574 187.776 409.006 188.808C409.462 189.84 409.69 190.992 409.69 192.264V203.28C409.69 203.472 409.618 203.64 409.474 203.784C409.33 203.928 409.162 204 408.97 204C408.754 204 408.574 203.928 408.43 203.784C408.31 203.64 408.25 203.472 408.25 203.28V192.408C408.25 191.376 408.07 190.44 407.71 189.6C407.374 188.76 406.822 188.088 406.054 187.584C405.31 187.08 404.326 186.828 403.102 186.828C402.046 186.828 401.014 187.08 400.006 187.584C398.998 188.088 398.158 188.76 397.486 189.6C396.838 190.44 396.514 191.376 396.514 192.408V203.28C396.514 203.472 396.442 203.64 396.298 203.784C396.154 203.928 395.986 204 395.794 204C395.578 204 395.398 203.928 395.254 203.784C395.134 203.64 395.074 203.472 395.074 203.28V186.756C395.074 186.564 395.146 186.396 395.29 186.252C395.434 186.108 395.602 186.036 395.794 186.036C396.01 186.036 396.178 186.108 396.298 186.252C396.442 186.396 396.514 186.564 396.514 186.756V190.284L395.614 192.012C395.614 191.148 395.842 190.32 396.298 189.528C396.754 188.736 397.354 188.04 398.098 187.44C398.842 186.816 399.658 186.336 400.546 186C401.458 185.64 402.358 185.46 403.246 185.46ZM415.82 185.892H424.172C424.364 185.892 424.52 185.964 424.64 186.108C424.784 186.252 424.856 186.408 424.856 186.576C424.856 186.768 424.784 186.936 424.64 187.08C424.52 187.2 424.364 187.26 424.172 187.26H415.82C415.652 187.26 415.496 187.188 415.352 187.044C415.208 186.9 415.136 186.744 415.136 186.576C415.136 186.384 415.208 186.228 415.352 186.108C415.496 185.964 415.652 185.892 415.82 185.892ZM419.492 180.6C419.708 180.6 419.876 180.672 419.996 180.816C420.14 180.96 420.212 181.128 420.212 181.32V200.076C420.212 200.868 420.308 201.456 420.5 201.84C420.716 202.2 420.98 202.44 421.292 202.56C421.604 202.656 421.904 202.704 422.192 202.704C422.36 202.704 422.504 202.68 422.624 202.632C422.744 202.584 422.888 202.56 423.056 202.56C423.224 202.56 423.368 202.632 423.488 202.776C423.608 202.896 423.668 203.04 423.668 203.208C423.668 203.424 423.524 203.616 423.236 203.784C422.972 203.928 422.636 204 422.228 204C422.084 204 421.82 204 421.436 204C421.076 203.976 420.68 203.868 420.248 203.676C419.84 203.46 419.492 203.088 419.204 202.56C418.916 202.008 418.772 201.204 418.772 200.148V181.32C418.772 181.128 418.844 180.96 418.988 180.816C419.132 180.672 419.3 180.6 419.492 180.6ZM450.954 180.636L441.846 203.532C441.798 203.676 441.714 203.796 441.594 203.892C441.474 203.964 441.342 204 441.198 204C440.958 204 440.778 203.94 440.658 203.82C440.538 203.7 440.466 203.556 440.442 203.388C440.418 203.292 440.43 203.172 440.478 203.028L450.162 179.196C450.234 179.004 450.318 178.884 450.414 178.836C450.534 178.764 450.678 178.728 450.846 178.728C451.038 178.728 451.194 178.776 451.314 178.872C451.434 178.944 451.518 179.052 451.566 179.196L461.25 203.028C461.274 203.1 461.286 203.196 461.286 203.316C461.286 203.532 461.214 203.7 461.07 203.82C460.926 203.94 460.746 204 460.53 204C460.362 204 460.206 203.964 460.062 203.892C459.942 203.796 459.858 203.676 459.81 203.532L450.414 180.348L450.954 180.636ZM444.294 196.188L444.798 194.748H456.462L456.822 196.188H444.294ZM468.969 203.28C468.969 203.472 468.897 203.64 468.753 203.784C468.609 203.928 468.441 204 468.249 204C468.033 204 467.853 203.928 467.709 203.784C467.589 203.64 467.529 203.472 467.529 203.28V178.08C467.529 177.888 467.601 177.72 467.745 177.576C467.889 177.432 468.057 177.36 468.249 177.36C468.465 177.36 468.633 177.432 468.753 177.576C468.897 177.72 468.969 177.888 468.969 178.08V203.28ZM484.667 204.36C482.867 204.36 481.271 203.976 479.879 203.208C478.511 202.44 477.431 201.36 476.639 199.968C475.847 198.552 475.451 196.896 475.451 195C475.451 192.984 475.835 191.268 476.603 189.852C477.395 188.436 478.403 187.356 479.627 186.612C480.875 185.844 482.195 185.46 483.587 185.46C484.595 185.46 485.579 185.628 486.539 185.964C487.499 186.276 488.351 186.78 489.095 187.476C489.863 188.148 490.475 189 490.931 190.032C491.411 191.04 491.675 192.252 491.723 193.668C491.723 193.86 491.651 194.04 491.507 194.208C491.363 194.352 491.195 194.424 491.003 194.424H476.315L476.099 193.056H490.607L490.247 193.38V192.732C490.127 191.46 489.719 190.392 489.023 189.528C488.351 188.664 487.535 188.016 486.575 187.584C485.615 187.128 484.619 186.9 483.587 186.9C482.867 186.9 482.111 187.068 481.319 187.404C480.527 187.716 479.795 188.208 479.123 188.88C478.451 189.528 477.899 190.356 477.467 191.364C477.059 192.372 476.855 193.548 476.855 194.892C476.855 196.356 477.143 197.7 477.719 198.924C478.319 200.148 479.195 201.132 480.347 201.876C481.523 202.62 482.963 202.992 484.667 202.992C485.483 202.992 486.251 202.86 486.971 202.596C487.691 202.308 488.339 201.936 488.915 201.48C489.491 201.024 489.959 200.532 490.319 200.004C490.511 199.788 490.715 199.68 490.931 199.68C491.099 199.68 491.243 199.752 491.363 199.896C491.483 200.016 491.543 200.16 491.543 200.328C491.543 200.496 491.495 200.64 491.399 200.76C490.655 201.72 489.695 202.56 488.519 203.28C487.367 204 486.083 204.36 484.667 204.36ZM506.038 185.82C507.382 185.82 508.606 186.192 509.71 186.936C510.838 187.656 511.606 188.796 512.014 190.356L511.546 190.68L511.726 189.996C512.038 189.204 512.578 188.496 513.346 187.872C514.138 187.248 515.014 186.756 515.974 186.396C516.958 186.012 517.906 185.82 518.818 185.82C520.258 185.82 521.446 186.132 522.382 186.756C523.318 187.38 524.002 188.22 524.434 189.276C524.89 190.308 525.118 191.484 525.118 192.804V203.28C525.118 203.472 525.046 203.64 524.902 203.784C524.782 203.928 524.614 204 524.398 204C524.182 204 524.002 203.928 523.858 203.784C523.738 203.64 523.678 203.472 523.678 203.28V192.948C523.678 191.892 523.498 190.932 523.138 190.068C522.802 189.18 522.262 188.484 521.518 187.98C520.798 187.452 519.85 187.188 518.674 187.188C517.642 187.188 516.634 187.452 515.65 187.98C514.666 188.484 513.85 189.18 513.202 190.068C512.578 190.932 512.266 191.892 512.266 192.948V203.28C512.266 203.472 512.194 203.64 512.05 203.784C511.93 203.928 511.762 204 511.546 204C511.33 204 511.15 203.928 511.006 203.784C510.886 203.64 510.826 203.472 510.826 203.28V192.768C510.826 191.736 510.658 190.8 510.322 189.96C510.01 189.12 509.506 188.448 508.81 187.944C508.114 187.44 507.19 187.188 506.038 187.188C505.03 187.188 504.046 187.44 503.086 187.944C502.15 188.448 501.37 189.12 500.746 189.96C500.122 190.8 499.81 191.736 499.81 192.768V203.28C499.81 203.472 499.738 203.64 499.594 203.784C499.45 203.928 499.282 204 499.09 204C498.874 204 498.694 203.928 498.55 203.784C498.43 203.64 498.37 203.472 498.37 203.28V186.756C498.37 186.564 498.442 186.396 498.586 186.252C498.73 186.108 498.898 186.036 499.09 186.036C499.306 186.036 499.474 186.108 499.594 186.252C499.738 186.396 499.81 186.564 499.81 186.756V190.68L498.73 192.516C498.73 191.676 498.934 190.86 499.342 190.068C499.75 189.276 500.29 188.568 500.962 187.944C501.658 187.296 502.438 186.78 503.302 186.396C504.19 186.012 505.102 185.82 506.038 185.82ZM541.253 185.46C542.861 185.46 544.289 185.868 545.537 186.684C546.785 187.476 547.769 188.58 548.489 189.996C549.233 191.388 549.605 192.996 549.605 194.82C549.605 196.62 549.233 198.24 548.489 199.68C547.769 201.12 546.773 202.26 545.501 203.1C544.253 203.94 542.837 204.36 541.253 204.36C540.461 204.36 539.693 204.24 538.949 204C538.229 203.76 537.557 203.424 536.933 202.992C536.309 202.536 535.733 201.996 535.205 201.372C534.701 200.724 534.257 200.004 533.873 199.212L534.341 198.708V203.28C534.341 203.472 534.269 203.64 534.125 203.784C534.005 203.928 533.837 204 533.621 204C533.429 204 533.261 203.928 533.117 203.784C532.973 203.64 532.901 203.472 532.901 203.28V178.116C532.901 177.924 532.961 177.756 533.081 177.612C533.225 177.468 533.405 177.396 533.621 177.396C533.837 177.396 534.005 177.468 534.125 177.612C534.269 177.756 534.341 177.924 534.341 178.116V191.148L533.873 190.896C534.209 190.008 534.629 189.228 535.133 188.556C535.637 187.884 536.213 187.32 536.861 186.864C537.509 186.408 538.205 186.06 538.949 185.82C539.693 185.58 540.461 185.46 541.253 185.46ZM541.181 186.828C539.813 186.828 538.601 187.176 537.545 187.872C536.513 188.544 535.697 189.48 535.097 190.68C534.497 191.88 534.197 193.26 534.197 194.82C534.197 196.38 534.497 197.784 535.097 199.032C535.697 200.256 536.513 201.228 537.545 201.948C538.601 202.644 539.813 202.992 541.181 202.992C542.525 202.992 543.713 202.632 544.745 201.912C545.801 201.192 546.629 200.22 547.229 198.996C547.853 197.748 548.165 196.356 548.165 194.82C548.165 193.26 547.853 191.88 547.229 190.68C546.629 189.48 545.801 188.544 544.745 187.872C543.713 187.176 542.525 186.828 541.181 186.828ZM572.884 194.928C572.884 196.704 572.5 198.312 571.732 199.752C570.964 201.168 569.908 202.296 568.564 203.136C567.244 203.952 565.732 204.36 564.028 204.36C562.348 204.36 560.836 203.952 559.492 203.136C558.148 202.296 557.08 201.168 556.288 199.752C555.52 198.312 555.136 196.704 555.136 194.928C555.136 193.128 555.52 191.52 556.288 190.104C557.08 188.664 558.148 187.536 559.492 186.72C560.836 185.88 562.348 185.46 564.028 185.46C565.732 185.46 567.244 185.88 568.564 186.72C569.908 187.536 570.964 188.664 571.732 190.104C572.5 191.52 572.884 193.128 572.884 194.928ZM571.444 194.928C571.444 193.368 571.12 191.988 570.472 190.788C569.848 189.564 568.972 188.604 567.844 187.908C566.74 187.188 565.468 186.828 564.028 186.828C562.612 186.828 561.34 187.188 560.212 187.908C559.084 188.604 558.196 189.564 557.548 190.788C556.9 191.988 556.576 193.368 556.576 194.928C556.576 196.464 556.9 197.844 557.548 199.068C558.196 200.268 559.084 201.228 560.212 201.948C561.34 202.644 562.612 202.992 564.028 202.992C565.468 202.992 566.74 202.644 567.844 201.948C568.972 201.228 569.848 200.268 570.472 199.068C571.12 197.844 571.444 196.464 571.444 194.928Z" fill="#106BAB"/>
<path d="M139.424 159.68C130.884 159.68 123.324 157.79 116.744 154.01C110.164 150.23 104.984 145.12 101.204 138.68C97.5642 132.1 95.7442 124.75 95.7442 116.63C95.7442 108.65 97.7042 101.37 101.624 94.79C105.544 88.21 110.794 82.96 117.374 79.04C124.094 75.12 131.514 73.16 139.634 73.16C149.434 73.16 157.624 76.03 164.204 81.77C170.924 87.51 175.754 95 178.694 104.24L106.874 131.96L103.934 124.82L169.664 99.2L167.564 102.14C165.184 96.54 161.544 91.71 156.644 87.65C151.884 83.59 146.004 81.56 139.004 81.56C132.704 81.56 127.034 83.1 121.994 86.18C116.954 89.26 112.894 93.39 109.814 98.57C106.874 103.75 105.404 109.63 105.404 116.21C105.404 122.37 106.804 128.11 109.604 133.43C112.544 138.75 116.604 143.02 121.784 146.24C126.964 149.46 132.914 151.07 139.634 151.07C144.114 151.07 148.384 150.23 152.444 148.55C156.644 146.87 160.354 144.7 163.574 142.04L168.614 149.18C164.694 152.26 160.144 154.78 154.964 156.74C149.924 158.7 144.744 159.68 139.424 159.68ZM225.168 75.89L226.218 98.78L224.748 96.68C227.548 89.54 232.168 83.94 238.608 79.88C245.188 75.68 252.328 73.58 260.028 73.58C264.648 73.58 268.778 74.49 272.418 76.31C276.198 77.99 279.208 80.37 281.448 83.45C283.828 86.39 285.228 89.82 285.648 93.74L284.388 95C287.328 88 291.948 82.68 298.248 79.04C304.548 75.4 311.338 73.58 318.618 73.58C326.458 73.58 332.688 75.89 337.308 80.51C341.928 84.99 344.308 90.87 344.448 98.15V158H334.578V100.25C334.438 95.35 332.898 91.22 329.958 87.86C327.018 84.36 322.538 82.47 316.518 82.19C311.058 82.19 306.018 83.59 301.398 86.39C296.778 89.19 292.998 92.9 290.058 97.52C287.258 102.14 285.718 107.32 285.438 113.06V158H275.568V100.25C275.428 95.35 273.818 91.22 270.738 87.86C267.798 84.36 263.318 82.47 257.298 82.19C251.698 82.19 246.518 83.59 241.758 86.39C237.138 89.19 233.428 93.04 230.628 97.94C227.828 102.7 226.428 108.02 226.428 113.9V158H216.558V75.89H225.168ZM426.371 159.68C418.531 159.68 411.391 157.93 404.951 154.43C398.651 150.79 393.611 145.75 389.831 139.31C386.191 132.87 384.371 125.38 384.371 116.84C384.371 107.74 386.331 99.97 390.251 93.53C394.171 86.95 399.491 81.98 406.211 78.62C412.931 75.12 420.561 73.37 429.101 73.37C436.381 73.37 443.241 75.54 449.681 79.88C456.261 84.22 460.951 89.68 463.751 96.26L462.281 99.2L463.541 75.89H472.361V158H462.491V132.59L464.591 136.37C463.611 139.17 461.931 141.97 459.551 144.77C457.171 147.43 454.231 149.95 450.731 152.33C447.371 154.57 443.591 156.39 439.391 157.79C435.331 159.05 430.991 159.68 426.371 159.68ZM428.471 151.28C434.631 151.28 440.161 150.02 445.061 147.5C450.101 144.84 454.161 141.2 457.241 136.58C460.321 131.96 462.071 126.64 462.491 120.62V108.86C461.371 103.68 459.131 99.06 455.771 95C452.551 90.94 448.561 87.72 443.801 85.34C439.041 82.96 433.861 81.77 428.261 81.77C422.101 81.77 416.431 83.24 411.251 86.18C406.071 88.98 401.941 92.97 398.861 98.15C395.781 103.33 394.241 109.42 394.241 116.42C394.241 122.86 395.781 128.74 398.861 134.06C401.941 139.24 406.071 143.44 411.251 146.66C416.571 149.74 422.311 151.28 428.471 151.28Z" fill="#106BAB"/>
</svg>
