<svg width="18" height="18" viewBox="0 0 18 18" fill="none" xmlns="http://www.w3.org/2000/svg">
<path d="M9 18C11.3869 18 13.6761 17.0518 15.364 15.364C17.0518 13.6761 18 11.3869 18 9C18 6.61305 17.0518 4.32387 15.364 2.63604C13.6761 0.948212 11.3869 0 9 0C6.61305 0 4.32387 0.948212 2.63604 2.63604C0.948212 4.32387 0 6.61305 0 9C0 11.3869 0.948212 13.6761 2.63604 15.364C4.32387 17.0518 6.61305 18 9 18V18ZM3.9375 5.625H14.0625C14.2117 5.625 14.3548 5.68426 14.4602 5.78975C14.5657 5.89524 14.625 6.03832 14.625 6.1875C14.625 6.33668 14.5657 6.47976 14.4602 6.58525C14.3548 6.69074 14.2117 6.75 14.0625 6.75H3.9375C3.78832 6.75 3.64524 6.69074 3.53975 6.58525C3.43426 6.47976 3.375 6.33668 3.375 6.1875C3.375 6.03832 3.43426 5.89524 3.53975 5.78975C3.64524 5.68426 3.78832 5.625 3.9375 5.625ZM5.625 9.5625C5.625 9.41332 5.68426 9.27024 5.78975 9.16475C5.89524 9.05926 6.03832 9 6.1875 9H11.8125C11.9617 9 12.1048 9.05926 12.2102 9.16475C12.3157 9.27024 12.375 9.41332 12.375 9.5625C12.375 9.71168 12.3157 9.85476 12.2102 9.96025C12.1048 10.0657 11.9617 10.125 11.8125 10.125H6.1875C6.03832 10.125 5.89524 10.0657 5.78975 9.96025C5.68426 9.85476 5.625 9.71168 5.625 9.5625ZM7.875 12.9375C7.875 12.7883 7.93426 12.6452 8.03975 12.5398C8.14524 12.4343 8.28832 12.375 8.4375 12.375H9.5625C9.71168 12.375 9.85476 12.4343 9.96025 12.5398C10.0657 12.6452 10.125 12.7883 10.125 12.9375C10.125 13.0867 10.0657 13.2298 9.96025 13.3352C9.85476 13.4407 9.71168 13.5 9.5625 13.5H8.4375C8.28832 13.5 8.14524 13.4407 8.03975 13.3352C7.93426 13.2298 7.875 13.0867 7.875 12.9375Z" fill="white"/>
</svg>
