<svg width="46" height="52" viewBox="0 0 46 52" fill="none" xmlns="http://www.w3.org/2000/svg">
<path d="M23 26C29.9036 26 35.5 20.4036 35.5 13.5C35.5 6.59644 29.9036 1 23 1C16.0964 1 10.5 6.59644 10.5 13.5C10.5 20.4036 16.0964 26 23 26Z" stroke="#959595" stroke-width="2"/>
<path d="M35.4999 31H36.3799C38.2076 31.0005 39.9722 31.6684 41.3422 32.8782C42.7122 34.088 43.5933 35.7564 43.8199 37.57L44.7974 45.38C44.8853 46.0836 44.8226 46.7978 44.6134 47.4753C44.4042 48.1528 44.0533 48.778 43.584 49.3095C43.1147 49.841 42.5377 50.2666 41.8913 50.5581C41.2449 50.8495 40.544 51.0002 39.8349 51H6.16491C5.45586 51.0002 4.75489 50.8495 4.10852 50.5581C3.46215 50.2666 2.88516 49.841 2.41585 49.3095C1.94653 48.778 1.59563 48.1528 1.38642 47.4753C1.17721 46.7978 1.11449 46.0836 1.20241 45.38L2.17741 37.57C2.40415 35.7556 3.28595 34.0865 4.65699 32.8765C6.02803 31.6666 7.79385 30.9993 9.62241 31H10.4999" stroke="#959595" stroke-width="2" stroke-linecap="round" stroke-linejoin="round"/>
</svg>
